<svg width="64" height="64" viewBox="0 0 64 64" fill="none" xmlns="http://www.w3.org/2000/svg">
<g clip-path="url(#clip0_1_5)">
<rect width="64" height="64" rx="4" fill="#181724"/>
<path d="M13.373 44.3989C13.7363 44.7757 14.0147 45.2307 14.1883 45.7314C14.3619 46.2321 14.4265 46.7663 14.3775 47.2958C14.1315 49.7463 13.6652 52.1678 12.9845 54.5289C17.867 53.3607 20.849 52.0082 22.2035 51.2993C22.9718 50.8971 23.8565 50.802 24.6885 51.0317C27.0736 51.6886 29.5316 52.0194 32 52.0154C45.986 52.0154 56.5 41.8637 56.5 30.316C56.5 18.7719 45.986 8.61657 32 8.61657C18.014 8.61657 7.5 18.7719 7.5 30.316C7.5 35.6251 9.6595 40.5509 13.373 44.3989ZM11.6475 58.5216C10.8182 58.6914 9.9863 58.8471 9.152 58.9881C8.452 59.1039 7.92 58.3516 8.1965 57.6789C8.50727 56.9216 8.79211 56.1533 9.0505 55.3752L9.061 55.339C9.929 52.7351 10.636 49.7406 10.895 46.9522C6.6005 42.5038 4 36.6811 4 30.316C4 16.3343 16.537 5 32 5C47.463 5 60 16.3343 60 30.316C60 44.2976 47.463 55.632 32 55.632C29.2268 55.6358 26.4651 55.2638 23.7855 54.5253C21.9655 55.4764 18.049 57.2088 11.6475 58.5216Z" fill="white"/>
<path d="M28.0049 26.4459C27.3057 25.4765 26.272 24.7352 25.0591 24.3336C23.8463 23.9321 22.5199 23.8919 21.2792 24.2191C20.0385 24.5462 18.9505 25.223 18.1789 26.1479C17.4072 27.0727 16.9936 28.1956 17.0001 29.3477C17.0007 30.3018 17.2891 31.2381 17.8351 32.059C18.3811 32.8799 19.1647 33.5552 20.104 34.0143C21.0432 34.4735 22.1037 34.6996 23.1748 34.6691C24.2458 34.6386 25.288 34.3526 26.1923 33.8409C25.7221 35.0841 24.8463 36.4103 23.4034 37.7398C23.1274 37.994 22.9761 38.3355 22.9827 38.6891C22.9861 38.8642 23.0281 39.0369 23.1064 39.1977C23.1848 39.3583 23.2979 39.5035 23.4393 39.6253C23.5807 39.747 23.7476 39.8427 23.9307 39.907C24.1135 39.9712 24.309 40.0027 24.5055 39.9998C24.9026 39.9937 25.281 39.8475 25.557 39.5933C30.8907 34.6718 30.1979 29.3221 28.0049 26.4523V26.4459ZM42.3621 26.4459C41.6629 25.4765 40.6292 24.7352 39.4164 24.3336C38.2035 23.9321 36.8771 23.8919 35.6365 24.2191C34.3956 24.5462 33.3077 25.223 32.5362 26.1479C31.7645 27.0727 31.3508 28.1956 31.3573 29.3477C31.358 30.3018 31.6462 31.2381 32.1923 32.059C32.7383 32.8799 33.5218 33.5552 34.4611 34.0143C35.4005 34.4735 36.4609 34.6996 37.532 34.6691C38.603 34.6386 39.6452 34.3526 40.5495 33.8409C40.0793 35.0841 39.2035 36.4103 37.7606 37.7398C37.6239 37.8657 37.5164 38.0143 37.4442 38.1773C37.3721 38.3401 37.3367 38.5141 37.3399 38.6891C37.3433 38.8642 37.3853 39.0369 37.4636 39.1977C37.542 39.3583 37.6551 39.5035 37.7965 39.6253C37.9379 39.747 38.1048 39.8427 38.2879 39.907C38.4708 39.9712 38.6662 40.0027 38.8627 39.9998C39.0594 39.9968 39.2534 39.9594 39.4339 39.8897C39.6143 39.8199 39.7774 39.7192 39.9142 39.5933C45.2479 34.6718 44.5552 29.3221 42.3621 26.4523V26.4459Z" fill="white"/>
</g>
<defs>
<clipPath id="clip0_1_5">
<rect width="64" height="64" fill="white"/>
</clipPath>
</defs>
</svg>
